<svg xmlns="http://www.w3.org/2000/svg" width="23" height="18">
    <path fill="#FFF" fill-rule="evenodd" d="M19.796 17.894H3.194c-1.806 0-2.725-.908-2.725-2.695V3.49c0-1.787.928-2.695 2.725-2.695h16.602c1.816 0 2.724.908 2.724 2.695v11.709c0 1.787-.908 2.695-2.724 2.695zm1.152-14.316c0-.811-.43-1.221-1.201-1.221H3.243c-.771 0-1.201.41-1.201 1.221v11.524c0 .82.43 1.22 1.201 1.22h16.504c.781 0 1.201-.4 1.201-1.22V3.578zm-1.621 11.787h-.859c-.235 0-.391-.176-.391-.381v-.781c0-.235.137-.391.391-.391h.859c.235 0 .391.156.391.391v.781c0 .205-.156.381-.391.381zm0-2.627h-.859c-.235 0-.391-.176-.391-.371v-.781c0-.235.137-.401.391-.401h.859c.235 0 .391.166.391.401v.781c0 .195-.156.371-.391.371zm0-2.627h-.859c-.235 0-.391-.166-.391-.371v-.771c0-.244.137-.4.391-.4h.859c.235 0 .391.156.391.4v.771c0 .205-.156.371-.391.371zm0-2.617h-.859c-.235 0-.391-.176-.391-.381v-.771c0-.245.137-.401.391-.401h.859c.235 0 .391.156.391.401v.771c0 .205-.156.381-.391.381zm0-2.627h-.859c-.235 0-.391-.166-.391-.371v-.772c0-.244.137-.4.391-.4h.859c.235 0 .391.156.391.4v.772c0 .205-.156.371-.391.371zM16.28 15.306H6.71c-.274 0-.45-.156-.45-.43v-4.384c0-.283.176-.439.45-.439h9.57c.284 0 .449.156.449.439v4.384c0 .274-.165.43-.449.43zm0-6.65H6.71c-.274 0-.45-.156-.45-.439V3.802c0-.273.176-.429.45-.429h9.57c.284 0 .449.156.449.429v4.415c0 .283-.165.439-.449.439zM4.532 15.365h-.85c-.244 0-.4-.176-.4-.381v-.781c0-.235.147-.391.4-.391h.85c.235 0 .391.156.391.391v.781c0 .205-.156.381-.391.381zm0-2.627h-.85c-.244 0-.4-.176-.4-.371v-.781c0-.235.147-.401.4-.401h.85c.235 0 .391.166.391.401v.781c0 .195-.156.371-.391.371zm0-2.627h-.85c-.244 0-.4-.166-.4-.371v-.771c0-.244.147-.4.4-.4h.85c.235 0 .391.156.391.4v.771c0 .205-.156.371-.391.371zm0-2.617h-.85c-.244 0-.4-.176-.4-.381v-.771c0-.245.147-.401.4-.401h.85c.235 0 .391.156.391.401v.771c0 .205-.156.381-.391.381zm0-2.627h-.85c-.244 0-.4-.166-.4-.371v-.772c0-.244.147-.4.4-.4h.85c.235 0 .391.156.391.4v.772c0 .205-.156.371-.391.371z"/>
</svg>
